<?xml version="1.0" encoding="utf-8"?>
<!-- Generator: Adobe Illustrator 16.0.0, SVG Export Plug-In . SVG Version: 6.00 Build 0)  -->
<!DOCTYPE svg PUBLIC "-//W3C//DTD SVG 1.1//EN" "http://www.w3.org/Graphics/SVG/1.1/DTD/svg11.dtd">
<svg version="1.1" id="Layer_1" xmlns="http://www.w3.org/2000/svg" xmlns:xlink="http://www.w3.org/1999/xlink" x="0px" y="0px"
	 width="64px" height="64px" viewBox="0 0 64 64" enable-background="new 0 0 64 64" xml:space="preserve">
<g>
	<path fill="#FFFFFF" d="M25.282,22.397L10.083,7.199l-2.923,2.923L22.359,25.32L25.282,22.397z M29.646,29.684l-2.902-9.917
		l-7.015,7.015L29.646,29.684z"/>
	<path fill="#FFFFFF" d="M38.716,22.397L53.914,7.199l2.924,2.923L41.639,25.32L38.716,22.397z M34.353,29.684l2.901-9.917
		l7.016,7.015L34.353,29.684z"/>
	<path fill="#FFFFFF" d="M25.282,41.603L10.083,56.801l-2.923-2.923L22.359,38.68L25.282,41.603z M29.646,34.316l-2.902,9.916
		l-7.015-7.014L29.646,34.316z"/>
	<path fill="#FFFFFF" d="M38.716,41.603l15.198,15.198l2.924-2.923L41.639,38.68L38.716,41.603z M34.353,34.316l2.901,9.916
		l7.016-7.014L34.353,34.316z"/>
</g>
</svg>
